<?xml version="1.0" encoding="UTF-8"?>
<!DOCTYPE svg PUBLIC "-//W3C//DTD SVG 1.1//EN" "http://www.w3.org/Graphics/SVG/1.1/DTD/svg11.dtd">
<svg xmlns="http://www.w3.org/2000/svg" version="1.1" width="1000px" height="1000px" style="shape-rendering:geometricPrecision; text-rendering:geometricPrecision; image-rendering:optimizeQuality; fill-rule:evenodd; clip-rule:evenodd" xmlns:xlink="http://www.w3.org/1999/xlink">
<g><path style="opacity:1" fill="#4464d3" d="M 358.5,270.5 C 459.501,270.333 560.501,270.5 661.5,271C 665.667,272.5 668.5,275.333 670,279.5C 670.667,362.833 670.667,446.167 670,529.5C 668.5,533.667 665.667,536.5 661.5,538C 560.5,538.667 459.5,538.667 358.5,538C 354.333,536.5 351.5,533.667 350,529.5C 349.333,446.167 349.333,362.833 350,279.5C 351.688,275.315 354.521,272.315 358.5,270.5 Z M 370.5,332.5 C 397.169,332.333 423.835,332.5 450.5,333C 451,333.5 451.5,334 452,334.5C 452.667,343.833 452.667,353.167 452,362.5C 451.228,363.849 450.061,364.682 448.5,365C 422.833,365.667 397.167,365.667 371.5,365C 370.584,364.626 369.75,364.126 369,363.5C 368.333,353.833 368.333,344.167 369,334.5C 369.717,333.956 370.217,333.289 370.5,332.5 Z M 470.5,332.5 C 496.835,332.333 523.169,332.5 549.5,333C 550,333.5 550.5,334 551,334.5C 551.667,344.167 551.667,353.833 551,363.5C 549.933,364.191 548.766,364.691 547.5,365C 535,365.167 522.5,365.333 510,365.5C 496.434,365.64 482.934,365.14 469.5,364C 468.349,354.244 468.182,344.411 469,334.5C 469.717,333.956 470.217,333.289 470.5,332.5 Z M 569.5,332.5 C 596.169,332.333 622.835,332.5 649.5,333C 650,333.5 650.5,334 651,334.5C 651.667,344.167 651.667,353.833 651,363.5C 650.25,364.126 649.416,364.626 648.5,365C 622.303,365.82 596.137,365.653 570,364.5C 569.055,364.095 568.388,363.428 568,362.5C 567.333,353.167 567.333,343.833 568,334.5C 568.717,333.956 569.217,333.289 569.5,332.5 Z M 370.5,383.5 C 396.835,383.333 423.169,383.5 449.5,384C 450.416,384.374 451.25,384.874 452,385.5C 452.667,395.167 452.667,404.833 452,414.5C 451.25,415.126 450.416,415.626 449.5,416C 423.167,416.667 396.833,416.667 370.5,416C 370,415.5 369.5,415 369,414.5C 368.333,404.833 368.333,395.167 369,385.5C 369.717,384.956 370.217,384.289 370.5,383.5 Z M 470.5,383.5 C 496.835,383.333 523.169,383.5 549.5,384C 550,384.5 550.5,385 551,385.5C 551.667,395.167 551.667,404.833 551,414.5C 550.25,415.126 549.416,415.626 548.5,416C 522.833,416.667 497.167,416.667 471.5,416C 470.584,415.626 469.75,415.126 469,414.5C 468.333,404.833 468.333,395.167 469,385.5C 469.717,384.956 470.217,384.289 470.5,383.5 Z M 569.5,383.5 C 596.169,383.333 622.835,383.5 649.5,384C 650,384.5 650.5,385 651,385.5C 651.667,395.167 651.667,404.833 651,414.5C 650.5,415 650,415.5 649.5,416C 623.167,416.667 596.833,416.667 570.5,416C 569.584,415.626 568.75,415.126 568,414.5C 567.333,404.833 567.333,395.167 568,385.5C 568.717,384.956 569.217,384.289 569.5,383.5 Z M 371.5,434.5 C 398.231,434.027 424.898,434.527 451.5,436C 452.651,445.756 452.818,455.589 452,465.5C 451.5,466 451,466.5 450.5,467C 423.833,467.667 397.167,467.667 370.5,467C 370,466.5 369.5,466 369,465.5C 368.333,455.833 368.333,446.167 369,436.5C 369.995,435.934 370.828,435.267 371.5,434.5 Z M 471.5,434.5 C 497.169,434.333 522.835,434.5 548.5,435C 549.416,435.374 550.25,435.874 551,436.5C 551.667,446.167 551.667,455.833 551,465.5C 550.5,466 550,466.5 549.5,467C 523.167,467.667 496.833,467.667 470.5,467C 470,466.5 469.5,466 469,465.5C 468.333,455.833 468.333,446.167 469,436.5C 469.995,435.934 470.828,435.267 471.5,434.5 Z M 571.5,434.5 C 597.169,434.333 622.835,434.5 648.5,435C 649.416,435.374 650.25,435.874 651,436.5C 651.667,446.167 651.667,455.833 651,465.5C 650.5,466 650,466.5 649.5,467C 622.833,467.667 596.167,467.667 569.5,467C 569,466.5 568.5,466 568,465.5C 567.333,455.833 567.333,446.167 568,436.5C 569.302,435.915 570.469,435.249 571.5,434.5 Z M 369.5,486.5 C 396.502,486.333 423.502,486.5 450.5,487C 451,487.5 451.5,488 452,488.5C 452.667,497.833 452.667,507.167 452,516.5C 451.5,517 451,517.5 450.5,518C 423.833,518.667 397.167,518.667 370.5,518C 369.195,513.082 368.529,507.915 368.5,502.5C 368.523,497.088 368.856,491.755 369.5,486.5 Z M 469.5,486.5 C 496.502,486.333 523.502,486.5 550.5,487C 551.651,496.756 551.818,506.589 551,516.5C 550.5,517 550,517.5 549.5,518C 523.167,518.667 496.833,518.667 470.5,518C 470,517.5 469.5,517 469,516.5C 468.193,506.423 468.36,496.423 469.5,486.5 Z M 569.5,486.5 C 596.502,486.333 623.502,486.5 650.5,487C 651.818,497.106 651.818,507.272 650.5,517.5C 623.542,518.658 596.542,518.824 569.5,518C 569,517.5 568.5,517 568,516.5C 567.333,507.167 567.333,497.833 568,488.5C 568.717,487.956 569.217,487.289 569.5,486.5 Z"/></g>
<g><path style="opacity:0.967" fill="#4668dd" d="M 299.5,581.5 C 301.479,593.12 302.146,605.12 301.5,617.5C 306.844,617.334 312.177,617.501 317.5,618C 318.833,624.333 318.833,630.667 317.5,637C 312.177,637.499 306.844,637.666 301.5,637.5C 301.333,656.836 301.5,676.17 302,695.5C 302.318,697.061 303.151,698.228 304.5,699C 308.871,699.629 313.204,699.463 317.5,698.5C 318.833,705.5 320.167,712.5 321.5,719.5C 309.406,724.223 297.739,723.39 286.5,717C 282.115,713.205 279.615,708.371 279,702.5C 278.5,680.836 278.333,659.169 278.5,637.5C 274.818,637.665 271.152,637.499 267.5,637C 266.167,630.667 266.167,624.333 267.5,618C 271.152,617.501 274.818,617.335 278.5,617.5C 278.334,610.159 278.5,602.826 279,595.5C 286.265,591.391 293.098,586.724 299.5,581.5 Z"/></g>
<g><path style="opacity:0.949" fill="#4668dd" d="M 652.5,581.5 C 653.117,581.611 653.617,581.944 654,582.5C 654.5,594.162 654.667,605.829 654.5,617.5C 659.833,617.5 665.167,617.5 670.5,617.5C 670.5,624.167 670.5,630.833 670.5,637.5C 665.167,637.5 659.833,637.5 654.5,637.5C 654.333,657.169 654.5,676.836 655,696.5C 655.374,697.416 655.874,698.25 656.5,699C 661.115,699.239 665.615,699.406 670,699.5C 671.305,705.464 672.471,711.464 673.5,717.5C 662.857,723.951 651.857,724.118 640.5,718C 637.628,715.463 635.128,712.63 633,709.5C 631.707,685.883 631.04,662.216 631,638.5C 627.255,637.703 623.421,637.203 619.5,637C 618.167,630.667 618.167,624.333 619.5,618C 623.421,617.797 627.255,617.297 631,616.5C 631.169,609.144 631.669,601.811 632.5,594.5C 639.232,590.143 645.898,585.809 652.5,581.5 Z"/></g>
<g><path style="opacity:0.972" fill="#4668dc" d="M 371.5,615.5 C 380.139,614.547 388.139,616.38 395.5,621C 396.574,621.739 397.241,622.739 397.5,624C 395.032,630.764 392.199,637.264 389,643.5C 373.739,634.964 364.739,639.297 362,656.5C 361.667,677.5 361.333,698.5 361,719.5C 360.25,720.126 359.416,720.626 358.5,721C 352.167,721.667 345.833,721.667 339.5,721C 338.874,720.25 338.374,719.416 338,718.5C 337.333,685.5 337.333,652.5 338,619.5C 344.885,617.559 352.052,616.892 359.5,617.5C 359.338,619.527 359.505,621.527 360,623.5C 363.112,619.702 366.945,617.036 371.5,615.5 Z"/></g>
<g><path style="opacity:0.964" fill="#4668dd" d="M 442.5,615.5 C 453.306,614.894 463.973,615.727 474.5,618C 485.736,621.525 492.569,629.025 495,640.5C 495.196,662.517 495.863,684.517 497,706.5C 498.282,711.064 500.115,715.397 502.5,719.5C 501.975,720.192 501.308,720.692 500.5,721C 493.5,721.667 486.5,721.667 479.5,721C 478.584,720.626 477.75,720.126 477,719.5C 476.115,717 474.948,714.667 473.5,712.5C 454.559,725.367 435.226,726.2 415.5,715C 400.573,698.489 401.24,682.489 417.5,667C 421.52,664.966 425.52,662.966 429.5,661C 443.61,658.987 457.61,656.487 471.5,653.5C 471.923,640.598 465.589,634.932 452.5,636.5C 439.522,634.978 432.189,640.645 430.5,653.5C 422.837,653.754 415.17,653.087 407.5,651.5C 410.409,630.925 422.076,618.925 442.5,615.5 Z M 468.5,674.5 C 469.5,674.5 470.5,674.5 471.5,674.5C 472.279,692.223 463.779,701.557 446,702.5C 433.13,702.997 428.13,697.331 431,685.5C 433.669,682.836 436.836,681.002 440.5,680C 450.088,678.757 459.421,676.923 468.5,674.5 Z"/></g>
<g><path style="opacity:0.964" fill="#4668dd" d="M 557.5,615.5 C 576.931,612.644 592.431,618.977 604,634.5C 606.757,640.195 608.257,646.195 608.5,652.5C 601.167,653.5 593.833,654.5 586.5,655.5C 582.052,636.946 571.052,631.779 553.5,640C 545.665,648.025 542.332,657.691 543.5,669C 542.421,680.824 546.088,690.824 554.5,699C 574.035,705.899 585.035,699.066 587.5,678.5C 595.21,678.727 602.877,679.394 610.5,680.5C 605.665,711.505 587.665,725.339 556.5,722C 535.519,716.592 523.352,703.092 520,681.5C 517.612,665.731 519.945,650.731 527,636.5C 530.833,630 536,624.833 542.5,621C 547.571,619.035 552.571,617.202 557.5,615.5 Z"/></g>
<g><path style="opacity:0.968" fill="#4668dd" d="M 723.5,615.5 C 764.199,614.701 783.366,634.701 781,675.5C 778.33,705.003 762.163,721.003 732.5,723.5C 706.191,721.358 690.357,707.358 685,681.5C 682.559,665.701 684.893,650.701 692,636.5C 699.753,625.225 710.253,618.225 723.5,615.5 Z M 726.5,636.5 C 740.445,634.216 749.945,639.55 755,652.5C 759.007,666.76 757.674,680.427 751,693.5C 741.558,702.925 731.058,704.425 719.5,698C 712.991,693.149 709.491,686.649 709,678.5C 707.731,668.25 708.731,658.25 712,648.5C 715.541,642.78 720.374,638.78 726.5,636.5 Z"/></g>
<g><path style="opacity:0.964" fill="#4668dd" d="M 837.5,615.5 C 846.552,614.631 854.886,616.631 862.5,621.5C 862.833,622.333 863.167,623.167 863.5,624C 861.813,631.081 858.98,637.581 855,643.5C 841.092,635.463 832.425,639.13 829,654.5C 828.667,658.167 828.333,661.833 828,665.5C 828.148,684.233 827.314,702.733 825.5,721C 818.782,721.795 812.116,721.628 805.5,720.5C 804.5,686.173 804.167,651.84 804.5,617.5C 811.5,617.5 818.5,617.5 825.5,617.5C 826.256,619.613 826.423,621.613 826,623.5C 829.482,620.161 833.315,617.494 837.5,615.5 Z"/></g>
<g><path style="opacity:0.966" fill="#4668dd" d="M 161.5,617.5 C 170.839,617.334 180.173,617.5 189.5,618C 196.394,627.385 203.06,636.885 209.5,646.5C 216.661,637.164 223.661,627.664 230.5,618C 239.494,617.5 248.494,617.334 257.5,617.5C 256.56,620.714 255.06,623.714 253,626.5C 242.884,639.441 233.384,652.774 224.5,666.5C 236.239,684.3 248.239,701.967 260.5,719.5C 259.975,720.192 259.308,720.692 258.5,721C 254.5,721.167 250.5,721.333 246.5,721.5C 241.722,721.609 237.056,721.109 232.5,720C 225.124,708.747 217.624,697.58 210,686.5C 202.167,697.667 194.333,708.833 186.5,720C 181.944,721.109 177.278,721.609 172.5,721.5C 168.252,721.485 164.085,721.152 160,720.5C 159.333,719.5 159.333,718.5 160,717.5C 172.202,700.929 184.036,684.096 195.5,667C 183.53,650.876 172.197,634.376 161.5,617.5 Z"/></g>
</svg>
